<svg width="20" height="20" viewBox="0 0 20 20" fill="none" xmlns="http://www.w3.org/2000/svg">
<path fill-rule="evenodd" clip-rule="evenodd" d="M18.0045 0.265365C18.3536 -0.088455 18.9196 -0.088455 19.2687 0.265365C19.6178 0.619185 19.6178 1.19284 19.2687 1.54666L11.0255 9.90108L19.2615 18.2482C19.6106 18.602 19.6106 19.1757 19.2615 19.5295C18.9124 19.8833 18.3464 19.8833 17.9973 19.5295L9.76132 11.1824L1.53326 19.5215C1.18415 19.8753 0.618134 19.8753 0.269026 19.5215C-0.0800822 19.1677 -0.0800829 18.594 0.269026 18.2402L8.49708 9.90108L0.261831 1.55467C-0.0872774 1.20085 -0.0872767 0.627196 0.261831 0.273376C0.610939 -0.0804436 1.17695 -0.0804444 1.52606 0.273376L9.76132 8.61978L18.0045 0.265365Z" fill="#200E32"/>
</svg>
