<svg width="17" height="17" viewBox="0 0 17 17" fill="none" xmlns="http://www.w3.org/2000/svg">
<path fill-rule="evenodd" clip-rule="evenodd" d="M14.5115 0.369036C14.8629 0.0175642 15.4328 0.0175642 15.7843 0.369036C16.1357 0.720508 16.1357 1.29036 15.7843 1.64183L9.34358 8.08252L15.7785 14.5175C16.13 14.8689 16.13 15.4388 15.7785 15.7903C15.4271 16.1417 14.8572 16.1417 14.5057 15.7903L8.07078 9.35531L1.64213 15.784C1.29066 16.1354 0.720813 16.1354 0.369341 15.784C0.0178689 15.4325 0.0178682 14.8626 0.369341 14.5112L6.79799 8.08252L0.363603 1.64813C0.0121309 1.29666 0.0121316 0.72681 0.363603 0.375338C0.715075 0.0238666 1.28492 0.0238658 1.6364 0.375338L8.07078 6.80973L14.5115 0.369036Z" fill="#200E32"/>
</svg>
