<svg width="79" height="19" viewBox="0 0 79 19" fill="none" xmlns="http://www.w3.org/2000/svg">
<path d="M2.94 1.16C3.40667 1.2 3.8 1.31333 4.12 1.5C4.44 1.68667 4.6 1.98667 4.6 2.4C4.6 2.70667 4.46667 2.95333 4.2 3.14C3.94667 3.31333 3.62667 3.4 3.24 3.4C2.84 3.4 2.56 3.30667 2.4 3.12C2.25333 2.93333 2.18 2.74 2.18 2.54C2.18 2.15333 2.22667 1.82667 2.32 1.56C2.41333 1.28 2.62 1.14667 2.94 1.16ZM3.6 5.32C3.92 5.32 4.16667 5.41333 4.34 5.6C4.51333 5.77333 4.6 5.96 4.6 6.16C4.6 6.28 4.58667 6.48667 4.56 6.78C4.52 7.22 4.5 7.66 4.5 8.1C4.5 8.66 4.52 9.21333 4.56 9.76C4.58667 10.32 4.6 10.7267 4.6 10.98C4.65333 12.6333 4.68 13.98 4.68 15.02C4.68 16.0333 4.42667 16.7933 3.92 17.3C3.42667 17.82 2.74 18.08 1.86 18.08C1.59333 18.08 1.30667 17.9733 1 17.76C0.693333 17.56 0.54 17.34 0.54 17.1C0.54 16.9 0.593333 16.74 0.7 16.62C0.806667 16.5 0.933333 16.44 1.08 16.44C1.17333 16.44 1.29333 16.46 1.44 16.5C1.6 16.54 1.72 16.56 1.8 16.56C2.02667 16.56 2.20667 16.5267 2.34 16.46C2.47333 16.3933 2.58 16.2267 2.66 15.96C2.74 15.6933 2.78 15.28 2.78 14.72C2.78 11.7733 2.70667 9.5 2.56 7.9C2.48 7.1 2.44 6.49333 2.44 6.08C2.44 5.89333 2.53333 5.72 2.72 5.56C2.92 5.4 3.21333 5.32 3.6 5.32ZM16.1014 13.04C16.1014 13.3333 15.9414 13.58 15.6214 13.78C15.3147 13.98 15.0281 14.08 14.7614 14.08C14.2547 14.08 13.8481 14.02 13.5414 13.9C13.2481 13.7667 12.9747 13.5267 12.7214 13.18C12.3747 13.4867 11.9014 13.72 11.3014 13.88C10.7014 14.0267 10.1481 14.1 9.64141 14.1C8.81474 14.1 8.13474 13.88 7.60141 13.44C7.06807 12.9867 6.80141 12.3267 6.80141 11.46C6.80141 11.0867 6.90141 10.7467 7.10141 10.44C7.30141 10.12 7.57474 9.84 7.92141 9.6C8.30807 9.34667 8.74807 9.15333 9.24141 9.02C9.73474 8.87333 10.2481 8.8 10.7814 8.8C11.0614 8.8 11.3947 8.85333 11.7814 8.96C12.1681 9.06667 12.4681 9.18 12.6814 9.3V8.98C12.6814 8.26 12.5081 7.76667 12.1614 7.5C11.8147 7.22 11.2547 7.08 10.4814 7.08C10.2547 7.08 10.0281 7.12667 9.80141 7.22C9.58807 7.31333 9.34141 7.44 9.06141 7.6C8.68807 7.8 8.33474 7.9 8.00141 7.9C7.88141 7.9 7.76807 7.82 7.66141 7.66C7.55474 7.48667 7.50141 7.33333 7.50141 7.2C7.50141 6.81333 7.68141 6.48 8.04141 6.2C8.41474 5.92 8.85474 5.71333 9.36141 5.58C9.86807 5.43333 10.3214 5.36 10.7214 5.36C11.1214 5.36 11.5814 5.44 12.1014 5.6C12.6214 5.74667 13.0481 5.95333 13.3814 6.22C13.7814 6.56667 14.0881 6.97333 14.3014 7.44C14.5281 7.89333 14.6414 8.39333 14.6414 8.94C14.6414 9.11333 14.6281 9.37333 14.6014 9.72C14.5747 10.0933 14.5614 10.4133 14.5614 10.68C14.5614 10.8 14.5481 10.98 14.5214 11.22C14.4947 11.5133 14.4814 11.7467 14.4814 11.92C14.4814 12.08 14.5414 12.22 14.6614 12.34C14.7814 12.4467 14.9214 12.5 15.0814 12.5L15.6414 12.48C15.7881 12.48 15.9014 12.5333 15.9814 12.64C16.0614 12.7467 16.1014 12.88 16.1014 13.04ZM9.66141 12.52C10.2347 12.52 10.7147 12.46 11.1014 12.34C11.4881 12.22 11.9547 12 12.5014 11.68C12.5547 11.4533 12.5881 11.1533 12.6014 10.78C11.8681 10.4333 11.2614 10.26 10.7814 10.26C10.2347 10.26 9.74807 10.36 9.32141 10.56C8.89474 10.76 8.68141 11.1133 8.68141 11.62C8.68141 11.8733 8.78807 12.0867 9.00141 12.26C9.21474 12.4333 9.43474 12.52 9.66141 12.52ZM17.2311 9.42C17.2311 8.60667 17.4111 7.93333 17.7711 7.4C18.1311 6.85333 18.6311 6.34 19.2711 5.86C19.4578 5.72667 19.7711 5.61333 20.2111 5.52C20.6511 5.41333 21.0378 5.36 21.3711 5.36C21.7711 5.36 22.1911 5.44667 22.6311 5.62C23.0844 5.78 23.4511 5.96667 23.7311 6.18C24.2244 6.54 24.5644 6.96 24.7511 7.44C24.9378 7.90667 25.0311 8.46667 25.0311 9.12C25.0311 9.4 24.8711 9.67333 24.5511 9.94C24.2444 10.1933 23.9111 10.32 23.5511 10.32L22.7911 10.3C22.4044 10.3 21.8511 10.3133 21.1311 10.34L20.7111 10.36C20.4178 10.3867 20.1978 10.4 20.0511 10.4C19.8378 10.4 19.5444 10.3733 19.1711 10.32C19.2244 10.9467 19.4578 11.44 19.8711 11.8C20.2844 12.1467 20.7311 12.32 21.2111 12.32C22.0511 12.32 22.6378 12.1533 22.9711 11.82C23.2511 11.62 23.4378 11.4933 23.5311 11.44C23.6244 11.3867 23.7711 11.36 23.9711 11.36C24.1844 11.36 24.3711 11.46 24.5311 11.66C24.6911 11.86 24.7711 12.06 24.7711 12.26C24.7711 12.4867 24.6311 12.72 24.3511 12.96C24.0844 13.1867 23.7178 13.4267 23.2511 13.68C22.9978 13.7867 22.6511 13.88 22.2111 13.96C21.7711 14.04 21.4044 14.08 21.1111 14.08C20.6444 14.08 20.1244 13.9467 19.5511 13.68C18.9778 13.4 18.5511 13.0933 18.2711 12.76C17.9911 12.4267 17.7444 11.9533 17.5311 11.34C17.3311 10.7267 17.2311 10.0867 17.2311 9.42ZM21.2111 8.88C22.1578 8.88 22.8511 8.84667 23.2911 8.78C23.2644 8.39333 23.1444 8.08 22.9311 7.84C22.7178 7.58667 22.4244 7.37333 22.0511 7.2C21.9311 7.14667 21.8244 7.10667 21.7311 7.08C21.6378 7.05333 21.5311 7.04 21.4111 7.04C20.7978 7.04 20.2778 7.20667 19.8511 7.54C19.4378 7.87333 19.1911 8.3 19.1111 8.82C19.7778 8.86 20.4778 8.88 21.2111 8.88ZM26.7633 6.96C26.6566 6.88 26.5699 6.8 26.5033 6.72C26.4366 6.62667 26.4033 6.46667 26.4033 6.24C26.4033 5.98667 26.4899 5.79333 26.6633 5.66C26.8499 5.51333 27.0633 5.44 27.3033 5.44C27.7699 5.44 28.1699 5.56 28.5033 5.8C28.8499 6.04 29.1033 6.37333 29.2633 6.8C29.5566 6.25333 29.9299 5.88 30.3833 5.68C30.8366 5.46667 31.4633 5.36 32.2633 5.36C32.5833 5.36 32.9099 5.46 33.2433 5.66C33.5899 5.84667 33.9033 6.08 34.1833 6.36C34.4099 6.65333 34.6033 7.02 34.7633 7.46C34.9233 7.88667 35.0033 8.27333 35.0033 8.62C35.0033 8.82 34.9899 9.14667 34.9633 9.6C34.9366 10.08 34.9233 10.46 34.9233 10.74C34.9233 11.6733 35.1033 12.2467 35.4633 12.46C35.5166 12.4867 35.6166 12.52 35.7633 12.56C35.9099 12.6 36.0166 12.64 36.0833 12.68C36.1633 12.72 36.2033 12.78 36.2033 12.86C36.2166 13.18 36.0966 13.4467 35.8433 13.66C35.6033 13.86 35.3099 13.96 34.9633 13.96C34.4433 13.96 34.0366 13.82 33.7433 13.54C33.4499 13.26 33.2433 12.8333 33.1233 12.26C33.0566 12.0467 33.0233 11.7333 33.0233 11.32C33.0233 11.0933 33.0366 10.7267 33.0633 10.22C33.1033 9.82 33.1233 9.39333 33.1233 8.94C33.1233 8.47333 32.9899 8.06667 32.7233 7.72C32.4566 7.36 32.0899 7.18 31.6233 7.18C31.3433 7.18 31.0499 7.26667 30.7433 7.44C30.4366 7.6 30.2233 7.8 30.1033 8.04C29.9033 8.45333 29.7699 8.87333 29.7033 9.3C29.5433 10.1267 29.4633 10.92 29.4633 11.68C29.4633 11.8667 29.4766 12.2267 29.5033 12.76C29.5033 12.8 29.5033 12.9 29.5033 13.06C29.5033 13.2067 29.4833 13.3467 29.4433 13.48C29.4166 13.6133 29.3633 13.7333 29.2833 13.84C29.2299 13.8933 29.1299 13.9467 28.9833 14C28.8366 14.0533 28.7099 14.08 28.6033 14.08C28.4166 14.08 28.1833 14 27.9033 13.84C27.6233 13.68 27.4566 13.5 27.4033 13.3L27.3833 13.02C27.3833 12.9133 27.3966 12.7533 27.4233 12.54C27.5833 11.6067 27.6633 10.7933 27.6633 10.1C27.6633 9.79333 27.6566 9.56 27.6433 9.4L27.6233 8.48C27.6233 8.2 27.5433 7.93333 27.3833 7.68C27.2233 7.41333 27.0166 7.17333 26.7633 6.96Z" fill="#FF7400"/>
<path d="M47.9395 3.58C47.7529 3.58 47.5729 3.53333 47.3995 3.44C47.2262 3.34667 47.1062 3.20667 47.0395 3.02C46.9062 2.66 46.7595 2.40667 46.5995 2.26C46.4529 2.1 46.2729 2.02 46.0595 2.02C45.9262 2.02 45.7995 2.12 45.6795 2.32C45.5729 2.52 45.4929 2.83333 45.4395 3.26C45.3462 4.14 45.2995 4.81333 45.2995 5.28C45.4995 5.32 45.7795 5.34 46.1395 5.34C46.3262 5.34 46.5662 5.32667 46.8595 5.3L47.3995 5.28C47.6395 5.28 47.8262 5.32667 47.9595 5.42C48.0929 5.51333 48.1595 5.66667 48.1595 5.88C48.1595 6.18667 48.0662 6.44 47.8795 6.64C47.6929 6.84 47.4729 6.94 47.2195 6.94C46.2595 6.94 45.6129 6.98667 45.2795 7.08C45.2795 7.88 45.3195 9.02667 45.3995 10.52C45.3995 10.7467 45.4129 11.0733 45.4395 11.5L45.5195 13.04C45.5462 13.4267 45.5062 13.7 45.3995 13.86C45.3062 14.0067 45.0995 14.08 44.7795 14.08C44.1929 14.08 43.8129 13.7267 43.6395 13.02C43.5329 12.5133 43.4462 11.7933 43.3795 10.86C43.3262 9.91333 43.2995 9.08 43.2995 8.36C43.2995 7.98667 43.3195 7.55333 43.3595 7.06C43.3329 7.04667 43.2595 7.04 43.1395 7.04C43.0195 7.04 42.9329 7.04667 42.8795 7.06C42.4795 7.08667 42.1862 7.1 41.9995 7.1C41.8795 7.1 41.7595 7.01333 41.6395 6.84C41.5195 6.66667 41.4595 6.46667 41.4595 6.24C41.4595 6.10667 41.5062 5.98667 41.5995 5.88C41.6929 5.76 41.8062 5.67333 41.9395 5.62C42.1395 5.51333 42.4262 5.46 42.7995 5.46H43.3995C43.3995 3.59333 43.6062 2.29333 44.0195 1.56C44.4195 0.866666 45.0795 0.52 45.9995 0.52C46.4262 0.52 46.8329 0.606666 47.2195 0.78C47.6195 0.953333 47.9395 1.19333 48.1795 1.5C48.4329 1.80667 48.5595 2.15333 48.5595 2.54C48.5595 2.95333 48.5062 3.23333 48.3995 3.38C48.2929 3.51333 48.1395 3.58 47.9395 3.58ZM57.0894 7.58C57.196 7.76667 57.2827 8.04 57.3494 8.4C57.416 8.74667 57.4494 9.06 57.4494 9.34C57.4494 9.86 57.336 10.6 57.1094 11.56C56.1894 13.24 54.8294 14.08 53.0294 14.08C52.3627 14.08 51.6827 13.86 50.9894 13.42C50.296 12.98 49.816 12.4733 49.5494 11.9C49.1894 10.7533 49.0094 10.0267 49.0094 9.72C49.0094 9.18667 49.1227 8.62 49.3494 8.02C49.5894 7.42 49.8894 6.9 50.2494 6.46C50.476 6.15333 50.8827 5.89333 51.4694 5.68C52.056 5.45333 52.5894 5.34 53.0694 5.34C54.0027 5.34 54.796 5.52 55.4494 5.88C56.1027 6.22667 56.6494 6.79333 57.0894 7.58ZM55.3494 10.8C55.416 10.6267 55.4494 10.18 55.4494 9.46C55.4494 9.07333 55.376 8.69333 55.2294 8.32C55.096 7.94667 54.896 7.62667 54.6294 7.36C54.6027 7.33333 54.5294 7.29333 54.4094 7.24C54.2894 7.17333 54.1227 7.11333 53.9094 7.06C53.7094 6.99333 53.476 6.96 53.2094 6.96C52.4627 6.96 51.916 7.26 51.5694 7.86C51.2227 8.46 51.0494 9.14 51.0494 9.9C51.0494 10.0333 51.0827 10.2867 51.1494 10.66C51.2294 11.0333 51.296 11.2667 51.3494 11.36C51.3894 11.4533 51.4894 11.5867 51.6494 11.76C51.8227 11.92 52.0294 12.0667 52.2694 12.2C52.5227 12.32 52.7827 12.38 53.0494 12.38C53.6494 12.38 54.1294 12.24 54.4894 11.96C54.8494 11.6667 55.136 11.28 55.3494 10.8ZM67.2838 7.58C67.3904 7.76667 67.4771 8.04 67.5438 8.4C67.6104 8.74667 67.6438 9.06 67.6438 9.34C67.6438 9.7 67.6038 10.1 67.5238 10.54C67.4438 10.98 67.3704 11.32 67.3038 11.56C66.3838 13.24 65.0238 14.08 63.2238 14.08C62.5571 14.08 61.8771 13.86 61.1838 13.42C60.4904 12.98 60.0104 12.4733 59.7438 11.9C59.3838 10.7667 59.2038 10.04 59.2038 9.72C59.2038 9.18667 59.3171 8.62 59.5438 8.02C59.7838 7.42 60.0838 6.9 60.4438 6.46C60.6838 6.15333 61.0971 5.89333 61.6838 5.68C62.2704 5.45333 62.8038 5.34 63.2838 5.34C64.2171 5.34 65.0038 5.52 65.6438 5.88C66.2971 6.22667 66.8438 6.79333 67.2838 7.58ZM65.5438 10.8C65.6104 10.6667 65.6438 10.22 65.6438 9.46C65.6438 9.07333 65.5704 8.69333 65.4238 8.32C65.2904 7.94667 65.0904 7.62667 64.8238 7.36C64.7971 7.33333 64.7238 7.29333 64.6038 7.24C64.4838 7.17333 64.3171 7.11333 64.1038 7.06C63.9038 6.99333 63.6704 6.96 63.4038 6.96C62.6571 6.96 62.1104 7.26 61.7638 7.86C61.4171 8.46 61.2438 9.14 61.2438 9.9C61.2438 10.02 61.2838 10.2667 61.3638 10.64C61.4438 11.0133 61.5038 11.2533 61.5438 11.36C61.6504 11.5467 61.8638 11.7667 62.1838 12.02C62.5171 12.26 62.8771 12.38 63.2638 12.38C63.8638 12.38 64.3371 12.24 64.6838 11.96C65.0438 11.6667 65.3304 11.28 65.5438 10.8ZM77.84 13.9C77.56 13.9 77.2933 13.82 77.04 13.66C76.8 13.4867 76.5867 13.3067 76.4 13.12C76.2133 12.92 76.0867 12.7867 76.02 12.72C75.74 13.12 75.3333 13.4467 74.8 13.7C74.2667 13.9533 73.7533 14.08 73.26 14.08C72.5 14.08 71.8267 13.92 71.24 13.6C70.6533 13.28 70.2 12.8467 69.88 12.3C69.56 11.74 69.4 11.12 69.4 10.44C69.4 9.8 69.4733 9.18667 69.62 8.6C69.78 8 69.9933 7.5 70.26 7.1C70.62 6.59333 71.1 6.19333 71.7 5.9C72.3133 5.60667 72.92 5.46 73.52 5.46C73.88 5.46 74.22 5.52667 74.54 5.66C74.86 5.79333 75.14 5.96 75.38 6.16C75.38 5.28 75.3733 4.72667 75.36 4.5V4.06C75.36 2.80667 75.44 1.89333 75.6 1.32C75.7467 0.759999 76.1067 0.479999 76.68 0.479999C76.9867 0.479999 77.2133 0.546666 77.36 0.68C77.5067 0.813333 77.58 1.06667 77.58 1.44C77.58 1.57333 77.5467 1.94 77.48 2.54C77.3333 4.03333 77.26 5.52667 77.26 7.02C77.26 8.27333 77.28 9.20667 77.32 9.82C77.3733 10.42 77.4733 10.9 77.62 11.26C77.78 11.62 78.0267 11.94 78.36 12.22C78.56 12.38 78.7 12.5133 78.78 12.62C78.8733 12.7267 78.92 12.8667 78.92 13.04C78.92 13.2533 78.8133 13.4533 78.6 13.64C78.3867 13.8133 78.1333 13.9 77.84 13.9ZM73.2 12.46C73.9067 12.46 74.4267 12.24 74.76 11.8C75.1067 11.3467 75.28 10.7733 75.28 10.08L75.26 8.96C75.2467 8.74667 75.24 8.46 75.24 8.1C74.7467 7.51333 74.2133 7.22 73.64 7.22C73.2533 7.22 72.8867 7.32 72.54 7.52C72.2067 7.72 71.9333 8.01333 71.72 8.4C71.4933 8.84 71.38 9.50667 71.38 10.4C71.38 11.0133 71.56 11.5133 71.92 11.9C72.28 12.2733 72.7067 12.46 73.2 12.46Z" fill="black"/>
</svg>
